<?xml version="1.0" encoding="utf-8"?>
<!-- Generator: Adobe Illustrator 19.0.0, SVG Export Plug-In . SVG Version: 6.00 Build 0)  -->
<svg version="1.1" id="Capa_1" xmlns="http://www.w3.org/2000/svg" xmlns:xlink="http://www.w3.org/1999/xlink" x="0px" y="0px"
	 viewBox="0 0 200 200" style="enable-background:new 0 0 200 200;" xml:space="preserve">
<style type="text/css">
	.st0{fill:none;stroke:#000000;stroke-miterlimit:10;}
	.st1{clip-path:url(#XMLID_24_);fill:none;stroke:#000000;stroke-miterlimit:10;}
</style>
<g id="XMLID_20_">
	<path id="XMLID_21_" d="M48.9,94.7v6h7v-6h1.9v14.4h-1.9v-6.8h-7v6.8H47V94.7H48.9z"/>
</g>
<polygon id="XMLID_149_" points="50.6,166 52.6,176.2 54.9,166 "/>
<line id="XMLID_148_" class="st0" x1="52.5" y1="117" x2="52.5" y2="167"/>
<polygon id="XMLID_147_" points="54.9,40 52.9,29.8 50.6,40 "/>
<line id="XMLID_146_" class="st0" x1="52.5" y1="87" x2="52.5" y2="39"/>
<line id="XMLID_145_" class="st0" x1="48" y1="30.5" x2="61" y2="30.5"/>
<line id="XMLID_144_" class="st0" x1="62" y1="176.5" x2="48" y2="176.5"/>
<line id="XMLID_154_" class="st0" x1="84.7" y1="48.2" x2="78.6" y2="40.5"/>
<polygon id="XMLID_153_" points="83,42.5 75,35.6 79.5,45.2 "/>
<line id="XMLID_152_" class="st0" x1="59.8" y1="17.9" x2="65.9" y2="25.6"/>
<polygon id="XMLID_151_" points="61.5,23.6 69.5,30.5 65,20.9 "/>
<g id="XMLID_16_">
	<path id="XMLID_17_" d="M80.4,51.1c0.8-0.2,2-0.3,3.1-0.3c1.7,0,2.8,0.3,3.6,1c0.6,0.6,1,1.4,1,2.4c0,1.7-1,2.8-2.4,3.2v0.1
		c1,0.3,1.5,1.2,1.8,2.5c0.4,1.8,0.7,3,1,3.4h-1.7c-0.2-0.4-0.5-1.4-0.8-3c-0.4-1.7-1-2.4-2.5-2.4H82v5.4h-1.6V51.1z M82,56.8h1.7
		c1.7,0,2.8-0.9,2.8-2.4c0-1.6-1.2-2.3-2.9-2.3c-0.8,0-1.3,0.1-1.6,0.1V56.8z"/>
</g>
<g id="XMLID_13_">
	<path id="XMLID_14_" d="M103.7,7.5l2.3,6.1c0.2,0.7,0.5,1.5,0.7,2.1h0c0.2-0.6,0.4-1.4,0.7-2.2l2.1-6.1h2l-2.8,7.4
		c-1.3,3.6-2.3,5.4-3.6,6.5c-0.9,0.8-1.8,1.1-2.3,1.2l-0.5-1.6c0.5-0.1,1.1-0.5,1.6-0.9c0.5-0.4,1.2-1.1,1.6-2.1
		c0.1-0.2,0.2-0.3,0.2-0.4s0-0.3-0.1-0.5l-3.8-9.6H103.7z"/>
</g>
<g id="XMLID_10_">
	<path id="XMLID_11_" d="M151.9,95.2l1.5,2.2c0.4,0.6,0.7,1.1,1,1.7h0.1c0.3-0.6,0.7-1.2,1-1.7l1.5-2.2h2l-3.5,5l3.6,5.4H157
		l-1.5-2.3c-0.4-0.6-0.7-1.2-1.1-1.8h0c-0.3,0.6-0.7,1.2-1.1,1.8l-1.5,2.3h-2.1l3.7-5.3l-3.5-5.1H151.9z"/>
</g>
<g id="XMLID_5_">
	<path id="XMLID_6_" d="M97.8,182.7c0.7-0.1,1.8-0.3,3-0.3c1.6,0,2.7,0.3,3.4,0.9c0.7,0.5,1,1.2,1,2.2c0,1.2-0.8,2.3-2.1,2.8v0
		c1.2,0.3,2.6,1.3,2.6,3.1c0,1.1-0.4,1.9-1.1,2.5c-0.9,0.8-2.3,1.2-4.3,1.2c-1.1,0-2-0.1-2.5-0.1V182.7z M99.4,187.9h1.5
		c1.7,0,2.7-0.9,2.7-2.1c0-1.5-1.1-2-2.8-2c-0.7,0-1.2,0.1-1.4,0.1V187.9z M99.4,193.9c0.3,0.1,0.8,0.1,1.4,0.1
		c1.7,0,3.2-0.6,3.2-2.4c0-1.7-1.5-2.4-3.2-2.4h-1.3V193.9z"/>
</g>
<g id="XMLID_1_">
	<path id="XMLID_2_" d="M144.5,147c0,2.2,1.4,3.1,3,3.1c1.2,0,1.9-0.2,2.5-0.5l0.3,1.2c-0.6,0.3-1.5,0.6-3,0.6
		c-2.7,0-4.4-1.8-4.4-4.5s1.6-4.8,4.2-4.8c2.9,0,3.7,2.6,3.7,4.2c0,0.3,0,0.6-0.1,0.8H144.5z M149.3,145.8c0-1-0.4-2.6-2.2-2.6
		c-1.6,0-2.4,1.5-2.5,2.6H149.3z"/>
</g>
<line id="XMLID_163_" class="st0" x1="151.2" y1="157" x2="142.3" y2="157"/>
<polygon id="XMLID_162_" points="146.2,154.9 136.7,156.8 146.2,158.9 "/>
<line id="XMLID_161_" class="st0" x1="116.5" y1="156.4" x2="125.5" y2="156.3"/>
<polygon id="XMLID_160_" points="121.6,158.5 131,156.6 121.6,154.4 "/>
<polygon id="XMLID_170_" points="127,190.3 137.2,188.3 127,186 "/>
<line id="XMLID_169_" class="st0" x1="117" y1="188.5" x2="128" y2="188.5"/>
<polygon id="XMLID_168_" points="77,186 66.8,188 77,190.3 "/>
<line id="XMLID_167_" class="st0" x1="87" y1="188.5" x2="76" y2="188.5"/>
<line id="XMLID_166_" class="st0" x1="66.5" y1="193" x2="66.5" y2="180"/>
<line id="XMLID_157_" class="st0" x1="136.5" y1="180" x2="136.5" y2="193"/>
<g id="XMLID_140_">
	<defs>
		<path id="XMLID_182_" d="M134.5,34.5c0-2.2-1.8-4-4-4H70.5c-2.2,0-4,1.8-4,4v137.9c0,2.2,1.8,4,4,4h59.9c2.2,0,4-1.8,4-4V34.5z
			 M130.5,169.5c0,2.2-1.8,4-4,4H76.5c-2.2,0-4-1.8-4-4V39.5c0-2.2,1.8-4,4-4h49.9c2.2,0,4,1.8,4,4V169.5z"/>
	</defs>
	<clipPath id="XMLID_24_">
		<use xlink:href="#XMLID_182_"  style="overflow:visible;"/>
	</clipPath>
	<line id="XMLID_178_" class="st1" x1="59.3" y1="46.3" x2="80.2" y2="25.3"/>
	<line id="XMLID_177_" class="st1" x1="64.4" y1="46.3" x2="83.8" y2="26.9"/>
	<line id="XMLID_176_" class="st1" x1="72.5" y1="46.3" x2="93.5" y2="25.3"/>
	<line id="XMLID_175_" class="st1" x1="77.6" y1="46.3" x2="97" y2="26.9"/>
	<line id="XMLID_174_" class="st1" x1="84.8" y1="46.3" x2="105.7" y2="25.3"/>
	<line id="XMLID_173_" class="st1" x1="89.9" y1="46.3" x2="109.3" y2="26.9"/>
	<line id="XMLID_172_" class="st1" x1="97" y1="46.3" x2="118" y2="25.3"/>
	<line id="XMLID_171_" class="st1" x1="102.1" y1="46.3" x2="121.5" y2="26.9"/>
	<line id="XMLID_188_" class="st1" x1="110.3" y1="45.2" x2="131.2" y2="24.3"/>
	<line id="XMLID_187_" class="st1" x1="115.4" y1="45.2" x2="134.8" y2="25.9"/>
	<line id="XMLID_186_" class="st1" x1="123.6" y1="45.2" x2="144.5" y2="24.3"/>
	<line id="XMLID_185_" class="st1" x1="128.7" y1="45.2" x2="148.1" y2="25.9"/>
	<line id="XMLID_184_" class="st1" x1="118.5" y1="62.6" x2="139.4" y2="41.7"/>
	<line id="XMLID_183_" class="st1" x1="123.6" y1="62.6" x2="143" y2="43.2"/>
	<line id="XMLID_179_" class="st1" x1="124.6" y1="68.7" x2="145.5" y2="47.8"/>
	<line id="XMLID_141_" class="st1" x1="129.7" y1="68.7" x2="149.1" y2="49.3"/>
	<line id="XMLID_196_" class="st1" x1="118.5" y1="87.1" x2="139.4" y2="66.2"/>
	<line id="XMLID_195_" class="st1" x1="123.6" y1="87.1" x2="143" y2="67.7"/>
	<line id="XMLID_194_" class="st1" x1="124.6" y1="93.2" x2="145.5" y2="72.3"/>
	<line id="XMLID_193_" class="st1" x1="129.7" y1="93.2" x2="149.1" y2="73.8"/>
	<line id="XMLID_192_" class="st1" x1="123.6" y1="107.5" x2="144.5" y2="86.6"/>
	<line id="XMLID_191_" class="st1" x1="128.7" y1="107.5" x2="148.1" y2="88.1"/>
	<line id="XMLID_190_" class="st1" x1="124.6" y1="118.7" x2="145.5" y2="97.8"/>
	<line id="XMLID_189_" class="st1" x1="129.7" y1="118.7" x2="149.1" y2="99.3"/>
	<line id="XMLID_208_" class="st1" x1="56.2" y1="60.5" x2="77.1" y2="39.6"/>
	<line id="XMLID_207_" class="st1" x1="61.3" y1="60.5" x2="80.7" y2="41.2"/>
	<line id="XMLID_206_" class="st1" x1="62.3" y1="66.7" x2="83.3" y2="45.8"/>
	<line id="XMLID_205_" class="st1" x1="67.4" y1="66.7" x2="86.8" y2="47.3"/>
	<line id="XMLID_204_" class="st1" x1="56.2" y1="85" x2="77.1" y2="64.1"/>
	<line id="XMLID_203_" class="st1" x1="61.3" y1="85" x2="80.7" y2="65.6"/>
	<line id="XMLID_202_" class="st1" x1="62.3" y1="91.2" x2="83.3" y2="70.2"/>
	<line id="XMLID_201_" class="st1" x1="67.4" y1="91.2" x2="86.8" y2="71.8"/>
	<line id="XMLID_200_" class="st1" x1="61.3" y1="105.4" x2="82.2" y2="84.5"/>
	<line id="XMLID_199_" class="st1" x1="66.4" y1="105.4" x2="85.8" y2="86.1"/>
	<line id="XMLID_198_" class="st1" x1="62.3" y1="116.7" x2="83.3" y2="95.8"/>
	<line id="XMLID_197_" class="st1" x1="67.4" y1="116.7" x2="86.8" y2="97.3"/>
	<line id="XMLID_220_" class="st1" x1="56.2" y1="135" x2="77.1" y2="114.1"/>
	<line id="XMLID_219_" class="st1" x1="61.3" y1="135" x2="80.7" y2="115.6"/>
	<line id="XMLID_218_" class="st1" x1="62.3" y1="141.2" x2="83.3" y2="120.2"/>
	<line id="XMLID_217_" class="st1" x1="67.4" y1="141.2" x2="86.8" y2="121.8"/>
	<line id="XMLID_216_" class="st1" x1="56.2" y1="159.5" x2="77.1" y2="138.6"/>
	<line id="XMLID_215_" class="st1" x1="61.3" y1="159.5" x2="80.7" y2="140.1"/>
	<line id="XMLID_214_" class="st1" x1="62.3" y1="165.7" x2="83.3" y2="144.7"/>
	<line id="XMLID_213_" class="st1" x1="67.4" y1="165.7" x2="86.8" y2="146.3"/>
	<line id="XMLID_212_" class="st1" x1="61.3" y1="179.9" x2="82.2" y2="159"/>
	<line id="XMLID_211_" class="st1" x1="66.4" y1="179.9" x2="85.8" y2="160.5"/>
	<line id="XMLID_210_" class="st1" x1="62.3" y1="191.2" x2="83.3" y2="170.2"/>
	<line id="XMLID_209_" class="st1" x1="67.4" y1="191.2" x2="86.8" y2="171.8"/>
	<line id="XMLID_232_" class="st1" x1="117.4" y1="137.1" x2="138.4" y2="116.2"/>
	<line id="XMLID_231_" class="st1" x1="122.5" y1="137.1" x2="141.9" y2="117.7"/>
	<line id="XMLID_230_" class="st1" x1="123.6" y1="143.2" x2="144.5" y2="122.3"/>
	<line id="XMLID_229_" class="st1" x1="128.7" y1="143.2" x2="148.1" y2="123.8"/>
	<line id="XMLID_228_" class="st1" x1="117.4" y1="161.6" x2="138.4" y2="140.7"/>
	<line id="XMLID_227_" class="st1" x1="122.5" y1="161.6" x2="141.9" y2="142.2"/>
	<line id="XMLID_226_" class="st1" x1="123.6" y1="167.7" x2="144.5" y2="146.8"/>
	<line id="XMLID_225_" class="st1" x1="128.7" y1="167.7" x2="148.1" y2="148.3"/>
	<line id="XMLID_224_" class="st1" x1="119.5" y1="182" x2="140.4" y2="161.1"/>
	<line id="XMLID_223_" class="st1" x1="124.6" y1="182" x2="144" y2="162.6"/>
	<line id="XMLID_222_" class="st1" x1="82.7" y1="183" x2="103.7" y2="162.1"/>
	<line id="XMLID_221_" class="st1" x1="87.8" y1="183" x2="107.2" y2="163.6"/>
	<line id="XMLID_236_" class="st1" x1="91.9" y1="186.1" x2="112.9" y2="165.1"/>
	<line id="XMLID_235_" class="st1" x1="97" y1="186.1" x2="116.4" y2="166.7"/>
	<line id="XMLID_234_" class="st1" x1="108.3" y1="183" x2="129.2" y2="162.1"/>
	<line id="XMLID_233_" class="st1" x1="113.4" y1="183" x2="132.7" y2="163.6"/>
	<use xlink:href="#XMLID_182_"  style="overflow:visible;fill:none;stroke:#000000;stroke-miterlimit:10;"/>
</g>
</svg>
