<?xml version="1.0" encoding="utf-8"?>
<!-- Generator: Adobe Illustrator 19.0.0, SVG Export Plug-In . SVG Version: 6.00 Build 0)  -->
<svg version="1.1" id="Capa_1" xmlns="http://www.w3.org/2000/svg" xmlns:xlink="http://www.w3.org/1999/xlink" x="0px" y="0px"
	 viewBox="0 0 200 200" style="enable-background:new 0 0 200 200;" xml:space="preserve">
<style type="text/css">
	.st0{fill:none;stroke:#000000;stroke-miterlimit:10;}
	.st1{clip-path:url(#XMLID_16_);fill:none;stroke:#000000;stroke-width:0.75;stroke-miterlimit:10;}
</style>
<line id="XMLID_28_" class="st0" x1="98.5" y1="102" x2="98.5" y2="121"/>
<line id="XMLID_29_" class="st0" x1="89" y1="111.5" x2="108" y2="111.5"/>
<line id="XMLID_30_" class="st0" x1="116" y1="111.5" x2="120" y2="111.5"/>
<line id="XMLID_31_" class="st0" x1="126" y1="111.5" x2="145" y2="111.5"/>
<line id="XMLID_32_" class="st0" x1="55" y1="111.5" x2="76" y2="111.5"/>
<line id="XMLID_33_" class="st0" x1="98.5" y1="138" x2="98.5" y2="159"/>
<line id="XMLID_34_" class="st0" x1="98.5" y1="127" x2="98.5" y2="133"/>
<line id="XMLID_35_" class="st0" x1="98.5" y1="170" x2="98.5" y2="192"/>
<line id="XMLID_36_" class="st0" x1="157" y1="111.5" x2="178" y2="111.5"/>
<line id="XMLID_37_" class="st0" x1="40" y1="111.5" x2="22" y2="111.5"/>
<line id="XMLID_38_" class="st0" x1="98.5" y1="32" x2="98.5" y2="55"/>
<line id="XMLID_39_" class="st0" x1="98.5" y1="67" x2="98.5" y2="88"/>
<line id="XMLID_40_" class="st0" x1="82" y1="111.5" x2="86" y2="111.5"/>
<line id="XMLID_41_" class="st0" x1="48" y1="111.5" x2="52" y2="111.5"/>
<line id="XMLID_42_" class="st0" x1="150" y1="111.5" x2="155" y2="111.5"/>
<line id="XMLID_43_" class="st0" x1="98.5" y1="92" x2="98.5" y2="98"/>
<line id="XMLID_44_" class="st0" x1="98.5" y1="58" x2="98.5" y2="64"/>
<line id="XMLID_45_" class="st0" x1="98.5" y1="163" x2="98.5" y2="169"/>
<g id="XMLID_8_">
	<path id="XMLID_9_" d="M2.3,103c1.4-0.2,3-0.4,4.7-0.4c3.2,0,5.5,0.7,7,2.1c1.5,1.4,2.4,3.4,2.4,6.2c0,2.8-0.9,5.1-2.5,6.7
		c-1.6,1.6-4.3,2.5-7.6,2.5c-1.6,0-2.9-0.1-4-0.2V103z M4.6,118.2c0.6,0.1,1.4,0.1,2.2,0.1c4.7,0,7.3-2.7,7.3-7.3
		c0-4.1-2.3-6.6-7-6.6c-1.1,0-2,0.1-2.6,0.2V118.2z"/>
</g>
<g id="XMLID_1_">
	<path id="XMLID_2_" d="M191.2,103l1.8,2.7c0.5,0.7,0.8,1.3,1.3,2h0.1c0.4-0.7,0.8-1.4,1.2-2l1.7-2.6h2.4l-4.2,6l4.3,6.4h-2.6
		l-1.8-2.8c-0.5-0.7-0.9-1.4-1.3-2.1h-0.1c-0.4,0.7-0.8,1.4-1.3,2.1l-1.8,2.8h-2.5l4.4-6.3l-4.2-6H191.2z"/>
</g>
<g id="XMLID_4_">
	<path id="XMLID_5_" d="M168.9,145.6c0.1,3,2,4.3,4.2,4.3c1.6,0,2.6-0.3,3.4-0.6l0.4,1.6c-0.8,0.4-2.1,0.8-4.1,0.8
		c-3.8,0-6.1-2.5-6.1-6.2s2.2-6.7,5.8-6.7c4,0,5.1,3.5,5.1,5.8c0,0.5-0.1,0.8-0.1,1H168.9z M175.4,144c0-1.4-0.6-3.6-3.1-3.6
		c-2.3,0-3.3,2.1-3.4,3.6H175.4z"/>
</g>
<g id="XMLID_12_">
	<path id="XMLID_13_" d="M98.9,9.1l2.7,7.3c0.3,0.8,0.6,1.8,0.8,2.5h0.1c0.2-0.7,0.5-1.7,0.8-2.6l2.4-7.2h2.4l-3.4,8.8
		c-1.6,4.2-2.7,6.4-4.2,7.7c-1.1,1-2.2,1.4-2.8,1.5l-0.6-1.9c0.6-0.2,1.3-0.5,2-1.1c0.6-0.5,1.4-1.4,1.9-2.5
		c0.1-0.2,0.2-0.4,0.2-0.5s-0.1-0.3-0.2-0.6L96.5,9.1H98.9z"/>
</g>
<line id="XMLID_55_" class="st0" x1="161.8" y1="159.5" x2="154.3" y2="153.7"/>
<polygon id="XMLID_57_" points="8,165 10.2,175.7 12.6,165 "/>
<polygon id="XMLID_56_" points="158.9,154.6 149.8,150 156.2,157.9 "/>
<line id="XMLID_62_" class="st0" x1="131.6" y1="137.2" x2="139" y2="142.9"/>
<polygon id="XMLID_54_" points="134.5,142.1 143.5,146.6 137.1,138.7 "/>
<line id="XMLID_63_" class="st0" x1="10.5" y1="134" x2="10.5" y2="167"/>
<polygon id="XMLID_65_" points="12.6,61 10.4,50.3 8,61 "/>
<line id="XMLID_64_" class="st0" x1="10.5" y1="92" x2="10.5" y2="59"/>
<line id="XMLID_66_" class="st0" x1="5" y1="50.5" x2="33" y2="50.5"/>
<line id="XMLID_67_" class="st0" x1="35" y1="175.5" x2="5" y2="175.5"/>
<g id="XMLID_24_">
	<defs>
		<path id="XMLID_96_" d="M97.9,49.3c-34.8,0-63,28.2-63,63c0,34.8,28.2,63,63,63c34.8,0,63-28.2,63-63
			C161,77.5,132.8,49.3,97.9,49.3z M98.7,170.1c-31.7,0-57.5-25.7-57.5-57.5c0-31.7,25.7-57.5,57.5-57.5c31.7,0,57.5,25.7,57.5,57.5
			C156.2,144.4,130.5,170.1,98.7,170.1z"/>
	</defs>
	<clipPath id="XMLID_16_">
		<use xlink:href="#XMLID_96_"  style="overflow:visible;"/>
	</clipPath>
	<line id="XMLID_84_" class="st1" x1="84.8" y1="66" x2="106.8" y2="44"/>
	<line id="XMLID_83_" class="st1" x1="90.2" y1="66" x2="110.6" y2="45.6"/>
	<line id="XMLID_82_" class="st1" x1="98.8" y1="66" x2="120.8" y2="44"/>
	<line id="XMLID_81_" class="st1" x1="104.1" y1="66" x2="124.5" y2="45.6"/>
	<line id="XMLID_80_" class="st1" x1="111.6" y1="66" x2="133.7" y2="44"/>
	<line id="XMLID_79_" class="st1" x1="117" y1="66" x2="137.4" y2="45.6"/>
	<line id="XMLID_78_" class="st1" x1="123.5" y1="68.1" x2="145.5" y2="46.1"/>
	<line id="XMLID_77_" class="st1" x1="128.8" y1="68.1" x2="149.2" y2="47.7"/>
	<line id="XMLID_92_" class="st1" x1="125.6" y1="79.9" x2="147.6" y2="57.9"/>
	<line id="XMLID_91_" class="st1" x1="131" y1="79.9" x2="151.4" y2="59.5"/>
	<line id="XMLID_90_" class="st1" x1="139.6" y1="79.9" x2="161.6" y2="57.9"/>
	<line id="XMLID_89_" class="st1" x1="144.9" y1="79.9" x2="165.3" y2="59.5"/>
	<line id="XMLID_88_" class="st1" x1="143.9" y1="88.5" x2="165.9" y2="66.5"/>
	<line id="XMLID_87_" class="st1" x1="149.2" y1="88.5" x2="169.6" y2="68.1"/>
	<line id="XMLID_86_" class="st1" x1="146" y1="99.3" x2="168" y2="77.2"/>
	<line id="XMLID_85_" class="st1" x1="151.4" y1="99.3" x2="171.8" y2="78.9"/>
	<line id="XMLID_111_" class="st1" x1="20.2" y1="132.7" x2="42.2" y2="110.7"/>
	<line id="XMLID_110_" class="st1" x1="23.6" y1="134.7" x2="44" y2="114.3"/>
	<line id="XMLID_109_" class="st1" x1="20.4" y1="146.5" x2="42.4" y2="124.5"/>
	<line id="XMLID_108_" class="st1" x1="24.4" y1="147.8" x2="44.8" y2="127.4"/>
	<line id="XMLID_107_" class="st1" x1="29" y1="150.8" x2="51" y2="128.8"/>
	<line id="XMLID_106_" class="st1" x1="34.3" y1="150.8" x2="54.7" y2="130.4"/>
	<line id="XMLID_105_" class="st1" x1="40.8" y1="152.9" x2="62.8" y2="130.9"/>
	<line id="XMLID_104_" class="st1" x1="46.1" y1="152.9" x2="66.5" y2="132.5"/>
	<line id="XMLID_103_" class="st1" x1="42.9" y1="164.8" x2="64.9" y2="142.7"/>
	<line id="XMLID_102_" class="st1" x1="48.3" y1="164.8" x2="68.7" y2="144.4"/>
	<line id="XMLID_101_" class="st1" x1="56.9" y1="164.8" x2="78.9" y2="142.7"/>
	<line id="XMLID_100_" class="st1" x1="62.2" y1="164.8" x2="82.6" y2="144.4"/>
	<line id="XMLID_99_" class="st1" x1="61.2" y1="173.3" x2="83.2" y2="151.3"/>
	<line id="XMLID_98_" class="st1" x1="66.5" y1="173.3" x2="86.9" y2="152.9"/>
	<line id="XMLID_93_" class="st1" x1="63.3" y1="184.1" x2="85.3" y2="162.1"/>
	<line id="XMLID_25_" class="st1" x1="68.7" y1="184.1" x2="89.1" y2="163.7"/>
	<line id="XMLID_113_" class="st1" x1="143.9" y1="113.2" x2="165.9" y2="91.2"/>
	<line id="XMLID_112_" class="st1" x1="149.2" y1="113.2" x2="169.6" y2="92.8"/>
	<line id="XMLID_115_" class="st1" x1="144.9" y1="123.9" x2="166.9" y2="101.9"/>
	<line id="XMLID_114_" class="st1" x1="150.3" y1="123.9" x2="170.7" y2="103.5"/>
	<line id="XMLID_117_" class="st1" x1="141.7" y1="140.1" x2="163.7" y2="118"/>
	<line id="XMLID_116_" class="st1" x1="147.1" y1="140.1" x2="167.5" y2="119.7"/>
	<line id="XMLID_119_" class="st1" x1="134.2" y1="157.2" x2="156.2" y2="135.2"/>
	<line id="XMLID_118_" class="st1" x1="139.6" y1="157.2" x2="160" y2="136.8"/>
	<line id="XMLID_121_" class="st1" x1="119.2" y1="172.3" x2="141.2" y2="150.3"/>
	<line id="XMLID_120_" class="st1" x1="124.5" y1="172.3" x2="144.9" y2="151.9"/>
	<line id="XMLID_123_" class="st1" x1="100.9" y1="180.9" x2="122.9" y2="158.8"/>
	<line id="XMLID_122_" class="st1" x1="106.3" y1="180.9" x2="126.7" y2="160.5"/>
	<line id="XMLID_125_" class="st1" x1="88" y1="181.9" x2="110" y2="159.9"/>
	<line id="XMLID_124_" class="st1" x1="93.4" y1="181.9" x2="113.8" y2="161.5"/>
	<line id="XMLID_127_" class="st1" x1="78.4" y1="181.9" x2="100.4" y2="159.9"/>
	<line id="XMLID_126_" class="st1" x1="83.7" y1="181.9" x2="104.1" y2="161.5"/>
	<line id="XMLID_139_" class="st1" x1="61.2" y1="66" x2="83.2" y2="44"/>
	<line id="XMLID_138_" class="st1" x1="66.5" y1="66" x2="86.9" y2="45.6"/>
	<line id="XMLID_137_" class="st1" x1="70.8" y1="68.1" x2="92.8" y2="46.1"/>
	<line id="XMLID_136_" class="st1" x1="76.2" y1="68.1" x2="96.6" y2="47.7"/>
	<line id="XMLID_135_" class="st1" x1="27.9" y1="79.9" x2="49.9" y2="57.9"/>
	<line id="XMLID_134_" class="st1" x1="33.3" y1="79.9" x2="53.7" y2="59.5"/>
	<line id="XMLID_133_" class="st1" x1="41.8" y1="79.9" x2="63.9" y2="57.9"/>
	<line id="XMLID_132_" class="st1" x1="47.2" y1="79.9" x2="67.6" y2="59.5"/>
	<line id="XMLID_131_" class="st1" x1="26.8" y1="100.3" x2="48.8" y2="78.3"/>
	<line id="XMLID_130_" class="st1" x1="32.2" y1="100.3" x2="52.6" y2="79.9"/>
	<line id="XMLID_129_" class="st1" x1="29" y1="111.1" x2="51" y2="89.1"/>
	<line id="XMLID_128_" class="st1" x1="34.3" y1="111.1" x2="54.7" y2="90.7"/>
	<use xlink:href="#XMLID_96_"  style="overflow:visible;fill:none;stroke:#000000;stroke-width:0.75;stroke-miterlimit:10;"/>
</g>
</svg>
