<?xml version="1.0" encoding="utf-8"?>
<!-- Generator: Adobe Illustrator 19.0.0, SVG Export Plug-In . SVG Version: 6.00 Build 0)  -->
<svg version="1.1" id="Capa_1" xmlns="http://www.w3.org/2000/svg" xmlns:xlink="http://www.w3.org/1999/xlink" x="0px" y="0px"
	 viewBox="0 0 200 200" style="enable-background:new 0 0 200 200;" xml:space="preserve">
<style type="text/css">
	.st0{font-family:'MyriadPro-Regular';}
	.st1{font-size:23.359px;}
	.st2{font-size:20.2891px;}
	.st3{font-size:21.3152px;}
	.st4{fill:none;stroke:#000000;stroke-miterlimit:10;}
	.st5{clip-path:url(#XMLID_2_);}
	.st6{stroke:#000000;stroke-width:0.75;}
	.st7{font-size:20.022px;}
	.st8{clip-path:url(#XMLID_2_);fill:none;stroke:#000000;stroke-width:0.75;stroke-miterlimit:10;}
</style>
<text id="XMLID_243_" transform="matrix(1 0 0 1 99.8467 19.3936)" class="st0 st1">y</text>
<text id="XMLID_242_" transform="matrix(1 0 0 1 183.8994 105.5859)" class="st0 st1">x</text>
<text id="XMLID_244_" transform="matrix(1 0 0 1 57.9355 80.3174)" class="st0 st2">R</text>
<text id="XMLID_245_" transform="matrix(1 0 0 1 3.5 112.3643)" class="st0 st1">H</text>
<text id="XMLID_246_" transform="matrix(1 0 0 1 92.9727 193.3096)" class="st0 st3">B</text>
<polygon id="XMLID_252_" points="12.5,157 14.8,168.1 17.3,157 "/>
<line id="XMLID_251_" class="st4" x1="14.5" y1="123" x2="14.5" y2="158"/>
<polygon id="XMLID_250_" points="18.4,51 16.1,39.9 13.6,51 "/>
<line id="XMLID_249_" class="st4" x1="15.5" y1="80" x2="15.5" y2="50"/>
<line id="XMLID_248_" class="st4" x1="11" y1="40.5" x2="26" y2="40.5"/>
<line id="XMLID_247_" class="st4" x1="26" y1="167.5" x2="9" y2="167.5"/>
<line id="XMLID_256_" class="st4" x1="55.2" y1="61.5" x2="48.6" y2="53"/>
<polygon id="XMLID_255_" points="53.4,55.2 44.7,47.7 49.6,58.2 "/>
<line id="XMLID_254_" class="st4" x1="28.1" y1="28.4" x2="34.7" y2="36.8"/>
<polygon id="XMLID_253_" points="30,34.6 38.7,42.2 33.8,31.7 "/>
<line id="XMLID_260_" class="st4" x1="179.1" y1="141.3" x2="169.3" y2="141.2"/>
<polygon id="XMLID_259_" points="172.4,139 162.2,141 172.4,143.3 "/>
<line id="XMLID_258_" class="st4" x1="141.1" y1="141.5" x2="150.9" y2="141.5"/>
<polygon id="XMLID_257_" points="146.6,143.8 156.9,141.7 146.6,139.4 "/>
<polygon id="XMLID_266_" points="152,187.4 163.1,185.2 152,182.7 "/>
<line id="XMLID_265_" class="st4" x1="120" y1="185.5" x2="153" y2="185.5"/>
<polygon id="XMLID_264_" points="46,182.7 34.9,184.9 46,187.4 "/>
<line id="XMLID_263_" class="st4" x1="80" y1="185.5" x2="45" y2="185.5"/>
<line id="XMLID_262_" class="st4" x1="35.5" y1="190" x2="35.5" y2="175"/>
<line id="XMLID_261_" class="st4" x1="162.5" y1="175" x2="162.5" y2="190"/>
<g id="XMLID_237_">
	<defs>
		<path id="XMLID_332_" d="M160.5,50.9c0-5.7-4.6-10.4-10.4-10.4H45.9c-5.7,0-10.4,4.6-10.4,10.4v106.2c0,5.7,4.6,10.4,10.4,10.4
			h104.2c5.7,0,10.4-4.6,10.4-10.4V50.9z M156.5,153.8c0,3.2-2.8,8.6-6,8.6l-100.8-0.5c-3.2,0-9.2-3.8-9.2-7L40.3,52.1
			c0-3.2,3.7-7.6,6.9-7.6h103c3.2,0,6.3,3.2,6.3,6.4V153.8z"/>
	</defs>
	<clipPath id="XMLID_2_">
		<use xlink:href="#XMLID_332_"  style="overflow:visible;"/>
	</clipPath>
	<g id="XMLID_241_" class="st5">
		<text transform="matrix(1 0 0 1 172.7188 132.3857)" class="st6 st0 st7">e</text>
	</g>
	<line id="XMLID_274_" class="st8" x1="34.2" y1="169.5" x2="57" y2="146.7"/>
	<line id="XMLID_273_" class="st8" x1="39.8" y1="169.5" x2="60.9" y2="148.3"/>
	<line id="XMLID_272_" class="st8" x1="48.7" y1="169.5" x2="71.5" y2="146.7"/>
	<line id="XMLID_271_" class="st8" x1="54.2" y1="169.5" x2="75.4" y2="148.3"/>
	<line id="XMLID_270_" class="st8" x1="62" y1="169.5" x2="84.8" y2="146.7"/>
	<line id="XMLID_269_" class="st8" x1="67.6" y1="169.5" x2="88.7" y2="148.3"/>
	<line id="XMLID_268_" class="st8" x1="75.4" y1="169.5" x2="98.2" y2="146.7"/>
	<line id="XMLID_267_" class="st8" x1="80.9" y1="169.5" x2="102.1" y2="148.3"/>
	<line id="XMLID_282_" class="st8" x1="92.1" y1="169.5" x2="114.9" y2="146.7"/>
	<line id="XMLID_281_" class="st8" x1="97.6" y1="169.5" x2="118.8" y2="148.3"/>
	<line id="XMLID_280_" class="st8" x1="106.5" y1="169.5" x2="129.3" y2="146.7"/>
	<line id="XMLID_279_" class="st8" x1="112.1" y1="169.5" x2="133.2" y2="148.3"/>
	<line id="XMLID_278_" class="st8" x1="119.9" y1="169.5" x2="142.7" y2="146.7"/>
	<line id="XMLID_277_" class="st8" x1="125.4" y1="169.5" x2="146.6" y2="148.3"/>
	<line id="XMLID_276_" class="st8" x1="134.6" y1="168.1" x2="161.1" y2="141.6"/>
	<line id="XMLID_275_" class="st8" x1="141" y1="168.1" x2="165.6" y2="143.5"/>
	<line id="XMLID_290_" class="st8" x1="35.3" y1="51.6" x2="58.1" y2="28.8"/>
	<line id="XMLID_289_" class="st8" x1="31.4" y1="61" x2="62" y2="30.4"/>
	<line id="XMLID_288_" class="st8" x1="49.8" y1="51.6" x2="72.6" y2="28.8"/>
	<line id="XMLID_287_" class="st8" x1="55.4" y1="51.6" x2="76.5" y2="30.4"/>
	<line id="XMLID_286_" class="st8" x1="63.1" y1="51.6" x2="85.9" y2="28.8"/>
	<line id="XMLID_285_" class="st8" x1="68.7" y1="51.6" x2="89.8" y2="30.4"/>
	<line id="XMLID_284_" class="st8" x1="76.5" y1="51.6" x2="99.3" y2="28.8"/>
	<line id="XMLID_283_" class="st8" x1="82" y1="51.6" x2="103.2" y2="30.4"/>
	<line id="XMLID_298_" class="st8" x1="89.8" y1="51.6" x2="112.6" y2="28.8"/>
	<line id="XMLID_297_" class="st8" x1="95.4" y1="51.6" x2="116.5" y2="30.4"/>
	<line id="XMLID_296_" class="st8" x1="104.3" y1="51.6" x2="127.1" y2="28.8"/>
	<line id="XMLID_295_" class="st8" x1="109.9" y1="51.6" x2="131" y2="30.4"/>
	<line id="XMLID_294_" class="st8" x1="117.6" y1="51.6" x2="140.4" y2="28.8"/>
	<line id="XMLID_293_" class="st8" x1="123.2" y1="51.6" x2="144.3" y2="30.4"/>
	<line id="XMLID_292_" class="st8" x1="131" y1="51.6" x2="153.8" y2="28.8"/>
	<line id="XMLID_291_" class="st8" x1="136.6" y1="51.6" x2="157.7" y2="30.4"/>
	<line id="XMLID_306_" class="st8" x1="141" y1="57.1" x2="163.8" y2="34.3"/>
	<line id="XMLID_305_" class="st8" x1="146.6" y1="57.1" x2="167.7" y2="36"/>
	<line id="XMLID_304_" class="st8" x1="155.5" y1="57.1" x2="178.3" y2="34.3"/>
	<line id="XMLID_303_" class="st8" x1="152.1" y1="66" x2="173.3" y2="44.9"/>
	<line id="XMLID_302_" class="st8" x1="146.6" y1="80.5" x2="169.4" y2="57.7"/>
	<line id="XMLID_301_" class="st8" x1="152.1" y1="80.5" x2="173.3" y2="59.3"/>
	<line id="XMLID_300_" class="st8" x1="146.6" y1="94.9" x2="169.4" y2="72.1"/>
	<line id="XMLID_299_" class="st8" x1="152.1" y1="94.9" x2="173.3" y2="73.8"/>
	<line id="XMLID_312_" class="st8" x1="151" y1="106.1" x2="173.8" y2="83.3"/>
	<line id="XMLID_311_" class="st8" x1="147.7" y1="115" x2="168.8" y2="93.8"/>
	<line id="XMLID_310_" class="st8" x1="142.1" y1="129.4" x2="164.9" y2="106.6"/>
	<line id="XMLID_309_" class="st8" x1="147.7" y1="129.4" x2="168.8" y2="108.3"/>
	<line id="XMLID_308_" class="st8" x1="142.1" y1="143.9" x2="164.9" y2="121.1"/>
	<line id="XMLID_307_" class="st8" x1="147.7" y1="143.9" x2="168.8" y2="122.7"/>
	<line id="XMLID_324_" class="st8" x1="30.9" y1="70.5" x2="53.7" y2="47.7"/>
	<line id="XMLID_323_" class="st8" x1="27.5" y1="79.4" x2="48.7" y2="58.2"/>
	<line id="XMLID_322_" class="st8" x1="22" y1="93.8" x2="44.8" y2="71"/>
	<line id="XMLID_321_" class="st8" x1="27.5" y1="93.8" x2="48.7" y2="72.7"/>
	<line id="XMLID_320_" class="st8" x1="22" y1="108.3" x2="44.8" y2="85.5"/>
	<line id="XMLID_319_" class="st8" x1="27.5" y1="108.3" x2="48.7" y2="87.2"/>
	<line id="XMLID_318_" class="st8" x1="26.4" y1="119.4" x2="49.2" y2="96.6"/>
	<line id="XMLID_317_" class="st8" x1="23.1" y1="128.3" x2="44.2" y2="107.2"/>
	<line id="XMLID_316_" class="st8" x1="20.9" y1="139.4" x2="43.7" y2="116.6"/>
	<line id="XMLID_315_" class="st8" x1="26.4" y1="139.4" x2="47.6" y2="118.3"/>
	<line id="XMLID_314_" class="st8" x1="20.9" y1="153.9" x2="43.7" y2="131.1"/>
	<line id="XMLID_313_" class="st8" x1="26.4" y1="153.9" x2="47.6" y2="132.8"/>
	<line id="XMLID_326_" class="st8" x1="27.5" y1="162.8" x2="50.3" y2="140"/>
	<line id="XMLID_325_" class="st8" x1="33.1" y1="162.8" x2="54.2" y2="141.7"/>
	<line id="XMLID_328_" class="st8" x1="148.8" y1="168.4" x2="171.6" y2="145.5"/>
	<line id="XMLID_327_" class="st8" x1="154.4" y1="168.4" x2="175.5" y2="147.2"/>
	<use xlink:href="#XMLID_332_"  style="overflow:visible;fill:none;stroke:#000000;stroke-miterlimit:10;"/>
</g>
<text id="XMLID_238_" transform="matrix(1 0 0 1 173.4453 132.3857)" class="st0 st7">e</text>
</svg>
