<?xml version="1.0" encoding="utf-8"?>
<!-- Generator: Adobe Illustrator 19.0.0, SVG Export Plug-In . SVG Version: 6.00 Build 0)  -->
<svg version="1.1" id="Capa_1" xmlns="http://www.w3.org/2000/svg" xmlns:xlink="http://www.w3.org/1999/xlink" x="0px" y="0px"
	 viewBox="0 0 36 36" style="enable-background:new 0 0 36 36;" xml:space="preserve">
<style type="text/css">
	.st0{fill:#F75E00;}
	.st1{fill:#FFFFFF;}
</style>
<circle id="XMLID_193_" class="st0" cx="1135" cy="2794.2" r="18"/>
<path id="XMLID_118_" class="st1" d="M1144.2,2788.5c-0.7,0.3-1.4,0.5-2.2,0.6c0.8-0.5,1.4-1.2,1.7-2.1c-0.7,0.4-1.5,0.7-2.4,0.9
	c-0.7-0.7-1.7-1.2-2.8-1.2c-2.1,0-3.8,1.7-3.8,3.8c0,0.3,0,0.6,0.1,0.9c-3.1-0.2-5.9-1.7-7.8-3.9c-0.3,0.6-0.5,1.2-0.5,1.9
	c0,1.3,0.7,2.5,1.7,3.1c-0.6,0-1.2-0.2-1.7-0.5v0c0,1.8,1.3,3.3,3,3.7c-0.3,0.1-0.6,0.1-1,0.1c-0.2,0-0.5,0-0.7-0.1
	c0.5,1.5,1.9,2.6,3.5,2.6c-1.3,1-2.9,1.6-4.7,1.6c-0.3,0-0.6,0-0.9-0.1c1.7,1.1,3.7,1.7,5.8,1.7c6.9,0,10.7-5.7,10.7-10.7
	c0-0.2,0-0.3,0-0.5C1143,2790,1143.7,2789.3,1144.2,2788.5z"/>
<circle id="XMLID_4_" class="st0" cx="18" cy="18" r="18"/>
<path id="XMLID_1_" class="st1" d="M27.1,12.3c-0.7,0.3-1.4,0.5-2.2,0.6c0.8-0.5,1.4-1.2,1.7-2.1c-0.7,0.4-1.5,0.7-2.4,0.9
	c-0.7-0.7-1.7-1.2-2.7-1.2c-2.1,0-3.8,1.7-3.8,3.8c0,0.3,0,0.6,0.1,0.9c-3.1-0.2-5.9-1.7-7.8-3.9c-0.3,0.6-0.5,1.2-0.5,1.9
	c0,1.3,0.7,2.5,1.7,3.1c-0.6,0-1.2-0.2-1.7-0.5v0c0,1.8,1.3,3.3,3,3.7c-0.3,0.1-0.6,0.1-1,0.1c-0.2,0-0.5,0-0.7-0.1
	c0.5,1.5,1.9,2.6,3.5,2.6c-1.3,1-2.9,1.6-4.7,1.6c-0.3,0-0.6,0-0.9-0.1c1.7,1.1,3.6,1.7,5.8,1.7c6.9,0,10.7-5.7,10.7-10.7
	c0-0.2,0-0.3,0-0.5C26,13.7,26.6,13,27.1,12.3z"/>
</svg>
